<?xml version="1.0" standalone="no"?>
<!DOCTYPE svg PUBLIC "-//W3C//DTD SVG 20010904//EN"
 "http://www.w3.org/TR/2001/REC-SVG-20010904/DTD/svg10.dtd">
<svg version="1.0" xmlns="http://www.w3.org/2000/svg"
 width="800.000000pt" height="800.000000pt" viewBox="0 0 800.000000 800.000000"
 preserveAspectRatio="xMidYMid meet">

<g transform="translate(0.000000,800.000000) scale(0.100000,-0.100000)"
fill="#000000" stroke="none">
<path d="M0 4000 l0 -4000 4000 0 4000 0 0 4000 0 4000 -4000 0 -4000 0 0
-4000z m2640 2778 c70 -32 81 -42 58 -51 -7 -2 -130 -84 -273 -182 l-260 -176
-6 83 c-3 46 -3 86 0 90 12 13 395 268 403 268 4 0 39 -14 78 -32z m-58 -439
c3 -40 4 -77 1 -82 -8 -12 -305 -209 -324 -214 -17 -5 -133 49 -144 66 -3 6 7
17 22 25 15 8 116 76 223 150 107 75 200 134 205 133 6 -2 13 -37 17 -78z
m398 -99 l0 -89 -204 -136 -203 -137 -73 37 c-40 20 -69 40 -64 45 9 8 537
369 542 370 1 0 2 -40 2 -90z m-1427 -850 c324 -377 604 -710 623 -740 44 -70
81 -187 90 -282 8 -95 -15 -216 -60 -313 -18 -38 -294 -496 -614 -1017 -319
-520 -583 -955 -587 -967 -3 -11 1 -33 10 -51 13 -25 21 -30 53 -30 35 0 63
24 572 507 915 866 859 815 946 860 111 58 175 74 291 74 162 0 309 -53 417
-152 33 -30 213 -234 400 -454 187 -220 495 -581 683 -802 l343 -403 -239 0
-239 0 -563 663 c-309 364 -578 679 -598 701 -79 84 -204 110 -306 62 -38 -17
-217 -181 -748 -684 -760 -720 -749 -710 -891 -735 -180 -31 -368 68 -452 238
-31 63 -37 86 -41 162 -5 75 -2 98 19 158 17 51 180 325 612 1030 324 528 597
978 607 1000 27 58 25 157 -4 218 -14 31 -266 332 -702 839 -374 435 -682 794
-683 799 -2 6 96 8 234 7 l238 -3 589 -685z m3117 683 c0 -10 -1447 -1637
-1459 -1641 -5 -1 -61 58 -125 132 l-117 136 602 677 c331 373 609 684 617
691 12 9 77 12 249 12 128 0 233 -3 233 -7z m-771 -2055 c18 -62 34 -121 37
-131 5 -16 0 -18 -32 -15 -34 3 -40 7 -48 36 -7 26 -14 32 -36 32 -24 0 -29
-5 -34 -35 -6 -31 -11 -35 -37 -35 -24 0 -29 4 -25 18 3 9 19 68 37 130 l32
112 37 0 37 0 32 -112z m529 88 c25 -25 3 -38 -37 -23 -30 11 -34 10 -52 -12
-13 -15 -19 -39 -19 -71 0 -32 6 -56 19 -71 18 -22 22 -23 52 -12 45 17 64 0
30 -28 -38 -31 -94 -25 -137 14 -91 83 -28 237 90 223 21 -2 46 -12 54 -20z
m503 -108 l37 -128 -39 0 c-35 0 -39 3 -47 33 -6 24 -14 33 -34 35 -22 3 -28
-2 -38 -32 -9 -28 -17 -36 -36 -36 -13 0 -24 5 -24 11 0 9 52 197 65 237 3 9
18 12 42 10 l37 -3 37 -127z m499 117 c80 -41 80 -189 0 -230 -17 -9 -56 -15
-95 -15 l-65 0 0 130 0 130 65 0 c39 0 78 -6 95 -15z m528 -17 c3 -27 1 -28
-37 -28 -34 0 -41 -3 -41 -20 0 -16 7 -20 35 -20 32 0 35 -2 35 -30 0 -28 -3
-30 -35 -30 -28 0 -35 -4 -35 -20 0 -17 7 -20 46 -20 44 0 45 -1 42 -27 -3
-28 -4 -28 -85 -31 l-83 -3 0 124 c0 68 3 127 7 131 4 4 39 5 78 4 68 -3 70
-4 73 -30z m448 -47 c11 -41 23 -70 26 -65 3 5 13 39 23 77 l18 67 48 0 49 0
0 -130 0 -130 -40 0 -40 0 -1 53 -1 52 -15 -52 c-15 -52 -16 -53 -54 -53 -36
0 -38 2 -52 48 l-15 47 -1 -47 c-1 -46 -2 -48 -31 -48 l-30 0 0 131 0 130 47
-3 47 -3 22 -74z m576 32 l20 -48 20 48 c18 40 24 47 49 47 32 0 33 3 -15
-104 -16 -37 -26 -76 -26 -107 l0 -49 -40 0 -40 0 0 44 c0 28 -13 74 -35 126
-19 45 -35 84 -35 86 0 2 18 4 40 4 39 0 42 -2 62 -47z m-2084 -406 c25 -20
33 -58 21 -94 -28 -87 -149 -62 -149 31 0 70 76 107 128 63z m967 10 c16 -13
13 -14 -25 -13 -35 1 -46 -4 -62 -26 -37 -48 8 -119 67 -104 34 9 36 53 3 59
-19 4 -18 4 5 6 27 1 28 -1 25 -36 -3 -36 -5 -38 -42 -41 -52 -4 -86 27 -86
78 0 68 66 112 115 77z m856 3 c10 -6 19 -16 19 -22 0 -7 -5 -7 -14 2 -23 18
-61 8 -64 -17 -2 -16 4 -24 33 -33 19 -6 40 -20 45 -30 13 -24 13 -26 -6 -44
-20 -20 -65 -20 -90 0 -19 15 -19 16 1 9 45 -16 56 -17 70 -5 25 21 17 35 -30
58 -51 25 -59 51 -23 76 26 19 33 19 59 6z m-2575 -27 c10 -37 -7 -57 -50 -61
-34 -3 -36 -5 -36 -38 0 -21 -4 -33 -10 -29 -5 3 -10 40 -10 81 l0 74 50 0
c45 0 50 -2 56 -27z m142 20 c-46 -4 -48 -6 -48 -34 0 -27 3 -29 43 -31 l42
-1 -43 -4 c-42 -4 -43 -5 -40 -36 3 -30 6 -32 48 -38 l45 -6 -52 -1 -53 -2 0
80 0 80 53 -2 52 -2 -47 -3z m222 -8 c8 -9 9 -25 4 -42 -4 -16 -6 -32 -5 -38
2 -5 7 -22 11 -37 5 -16 5 -28 0 -28 -5 0 -13 15 -18 33 -7 28 -13 32 -45 35
-36 3 -37 3 -37 -33 0 -22 -4 -34 -10 -30 -5 3 -10 40 -10 81 l0 74 49 0 c31
0 53 -5 61 -15z m153 8 c-40 -4 -43 -6 -43 -34 0 -27 3 -29 38 -31 l37 -1 -37
-4 c-37 -4 -38 -5 -38 -44 0 -24 -4 -38 -10 -34 -5 3 -10 40 -10 81 l0 74 53
-2 c50 -1 50 -2 10 -5z m451 -15 c8 -13 8 -23 -1 -37 -9 -14 -9 -29 -3 -53 13
-42 13 -55 1 -42 -5 5 -11 20 -13 34 -2 21 -9 26 -40 28 -37 3 -38 3 -38 -32
0 -20 -4 -36 -10 -36 -6 0 -10 34 -10 81 l0 80 51 -3 c36 -2 55 -8 63 -20z
m133 -24 l30 -46 29 46 c16 25 32 46 37 46 4 0 6 -37 5 -82 l-2 -83 -5 69 -6
70 -29 -44 c-31 -48 -26 -49 -71 15 -13 18 -14 14 -14 -42 -1 -35 -5 -63 -11
-63 -6 0 -10 33 -10 80 0 44 4 80 9 80 5 0 22 -21 38 -46z m213 -34 c0 -38 -4
-72 -10 -75 -6 -4 -10 23 -10 75 0 52 4 79 10 75 6 -3 10 -37 10 -75z m141 19
l44 -61 3 61 c4 90 22 74 22 -19 0 -44 -3 -80 -7 -80 -5 0 -28 29 -53 63 l-45
62 -3 -55 c-5 -90 -22 -84 -22 8 0 45 4 82 8 82 5 0 28 -28 53 -61z m561 -14
c16 -38 27 -74 24 -79 -2 -6 -9 1 -15 17 -9 22 -17 27 -46 27 -28 0 -38 -5
-47 -25 -18 -40 -30 -29 -12 13 9 20 23 56 32 80 9 23 21 41 26 39 6 -2 23
-34 38 -72z m208 60 c8 -9 9 -25 4 -42 -4 -16 -6 -32 -5 -38 2 -5 7 -22 11
-37 5 -16 5 -28 0 -28 -5 0 -13 15 -18 33 -7 28 -13 32 -45 35 -36 3 -37 3
-37 -33 0 -22 -4 -34 -10 -30 -5 3 -10 40 -10 81 l0 74 49 0 c31 0 53 -5 61
-15z m178 8 c-28 -4 -28 -5 -28 -79 0 -43 -4 -74 -10 -74 -6 0 -10 31 -10 74
0 74 0 75 -27 79 -16 2 1 4 37 4 36 0 53 -2 38 -4z"/>
<path d="M3815 4007 c-4 -10 -5 -21 -1 -24 10 -10 18 4 13 24 -4 17 -4 17 -12
0z"/>
<path d="M4837 4001 c-3 -14 0 -21 9 -21 16 0 18 9 5 28 -6 10 -10 9 -14 -7z"/>
<path d="M5350 4000 c0 -83 2 -90 20 -90 24 0 50 47 50 90 0 43 -26 90 -50 90
-18 0 -20 -7 -20 -90z"/>
<path d="M4805 3660 c-37 -41 -8 -120 44 -120 25 0 61 42 61 71 0 61 -66 92
-105 49z"/>
<path d="M4060 3645 c0 -32 2 -35 30 -35 19 0 33 7 40 21 15 27 -3 49 -41 49
-26 0 -29 -3 -29 -35z"/>
<path d="M4420 3645 c0 -32 2 -35 29 -35 40 0 64 25 51 51 -8 13 -21 19 -45
19 -33 0 -35 -2 -35 -35z"/>
<path d="M5020 3644 c0 -34 1 -35 31 -32 63 6 67 68 4 68 -33 0 -35 -2 -35
-36z"/>
<path d="M6107 3630 c-15 -35 -15 -35 10 -38 34 -5 36 0 20 39 l-15 34 -15
-35z"/>
<path d="M6280 3645 c0 -32 2 -35 29 -35 40 0 64 25 51 51 -8 13 -21 19 -45
19 -33 0 -35 -2 -35 -35z"/>
</g>
</svg>
